<?xml version="1.0" ?><!-- Uploaded to: SVG Repo, www.svgrepo.com, Generator: SVG Repo Mixer Tools -->
<svg width="800px" height="800px" viewBox="0 0 64 64" id="fill" xmlns="http://www.w3.org/2000/svg"><polygon points="32 7 28 7 28 3 14 3 14 9 7 9 7 17 3 17 3 47 7 47 7 55 14 55 14 61 28 61 28 57 32 57 32 7" style="fill:#e5e6eb"/><polygon points="32 7 36 7 36 3 50 3 50 9 57 9 57 17 61 17 61 47 57 47 57 55 50 55 50 61 36 61 36 57 32 57 32 7" style="fill:#d9dae2"/><path d="M25,13H23V7a1,1,0,0,1,1-1h4V8H25Z" style="fill:#fff"/><path d="M29,57H27V52H23a1,1,0,0,1-1-1V47h2v3h4a1,1,0,0,1,1,1Z" style="fill:#fff"/><path d="M18,56H14V54h3V43a1,1,0,0,1,1-1h6v2H19V55A1,1,0,0,1,18,56Z" style="fill:#fff"/><path d="M12,48H7V46h4V39H9v2H7V38a1,1,0,0,1,1-1h4a1,1,0,0,1,1,1v9A1,1,0,0,1,12,48Z" style="fill:#fff"/><path d="M24,24H18a1,1,0,0,1-1-1V18H14a1,1,0,0,1-1-1V9h2v7h3a1,1,0,0,1,1,1v5h5Z" style="fill:#fff"/><path d="M12,28H7a1,1,0,0,1-1-1V17H8v9h4Z" style="fill:#fff"/><path d="M41,13H39V8H36V6h4a1,1,0,0,1,1,1Z" style="fill:#fff"/><path d="M37,57H35V51a1,1,0,0,1,1-1h4V47h2v4a1,1,0,0,1-1,1H37Z" style="fill:#fff"/><path d="M50,56H46a1,1,0,0,1-1-1V44H40V42h6a1,1,0,0,1,1,1V54h3Z" style="fill:#fff"/><path d="M57,48H52a1,1,0,0,1-1-1V38a1,1,0,0,1,1-1h4a1,1,0,0,1,1,1v3H55V39H53v7h4Z" style="fill:#fff"/><path d="M46,24H40V22h5V17a1,1,0,0,1,1-1h3V9h2v8a1,1,0,0,1-1,1H47v5A1,1,0,0,1,46,24Z" style="fill:#fff"/><path d="M57,28H52V26h4V17h2V27A1,1,0,0,1,57,28Z" style="fill:#fff"/><path d="M61,16H58V9a1,1,0,0,0-1-1H51V3a1,1,0,0,0-1-1H36a1,1,0,0,0-1,1V6H29V3a1,1,0,0,0-1-1H14a1,1,0,0,0-1,1V8H7A1,1,0,0,0,6,9v7H3a1,1,0,0,0-1,1V47a1,1,0,0,0,1,1H6v7a1,1,0,0,0,1,1h6v5a1,1,0,0,0,1,1H28a1,1,0,0,0,1-1V58h6v3a1,1,0,0,0,1,1H50a1,1,0,0,0,1-1V56h6a1,1,0,0,0,1-1V48h3a1,1,0,0,0,1-1V17A1,1,0,0,0,61,16ZM60,46H53V39h2v2h2V38a1,1,0,0,0-1-1H52a1,1,0,0,0-1,1v9a1,1,0,0,0,1,1h4v6H47V43a1,1,0,0,0-1-1H40v2h5V55a1,1,0,0,0,1,1h3v4H37V52h4a1,1,0,0,0,1-1V47H40v3H36a1,1,0,0,0-1,1v5H33V40.212H31V56H29V51a1,1,0,0,0-1-1H24V47H22v4a1,1,0,0,0,1,1h4v8H15V56h3a1,1,0,0,0,1-1V44h5V42H18a1,1,0,0,0-1,1V54H8V48h4a1,1,0,0,0,1-1V38a1,1,0,0,0-1-1H8a1,1,0,0,0-1,1v3H9V39h2v7H4V18H6v9a1,1,0,0,0,1,1h5V26H8V10h5v7a1,1,0,0,0,1,1h3v5a1,1,0,0,0,1,1h6V22H19V17a1,1,0,0,0-1-1H15V4H27V6H24a1,1,0,0,0-1,1v6h2V8h6V24h2V8h6v5h2V7a1,1,0,0,0-1-1H37V4H49V16H46a1,1,0,0,0-1,1v5H40v2h6a1,1,0,0,0,1-1V18h3a1,1,0,0,0,1-1V10h5V26H52v2h5a1,1,0,0,0,1-1V18h2Z"/><path d="M38.8,33.848l2-.711V30.863l-2-.711L38.119,28.5l.912-1.921-1.607-1.607-1.921.912L33.848,25.2l-.711-2H30.863l-.711,2-1.655.686-1.921-.912-1.607,1.607.912,1.921L25.2,30.152l-2,.711v2.274l2,.711.686,1.655-.912,1.921,1.607,1.607,1.921-.912,1.655.685.711,2h2.274l.711-2,1.655-.685,1.921.912,1.607-1.607L38.119,35.5ZM32,35a3,3,0,1,1,3-3A3,3,0,0,1,32,35Z" style="fill:#027de5"/></svg>